<svg xmlns="http://www.w3.org/2000/svg" viewBox="0 0 18 18" width="18" height="18">
	<style>
		tspan { white-space:pre }
		.shp0 { fill: #858585 } 
	</style>
	<path id="Fill 143" class="shp0" d="M12.25 17L6.25 17C5.97 17 5.75 16.78 5.75 16.5C5.75 16.22 5.97 16 6.25 16L7.25 16L7.25 15L11.25 15L11.25 16L12.25 16C12.53 16 12.75 16.22 12.75 16.5C12.75 16.78 12.53 17 12.25 17ZM14.75 14L3.25 14C2.15 14 1.25 13.1 1.25 12L1.25 11L16.75 11L16.75 12C16.75 13.1 15.85 14 14.75 14ZM16.75 10L16.75 10L1.25 10L1.25 3C1.25 1.9 2.15 1 3.25 1L14.75 1C15.85 1 16.75 1.9 16.75 3L16.75 10L16.75 10Z" />
</svg>