<svg xmlns="http://www.w3.org/2000/svg" viewBox="0 0 17 17" width="17" height="17">
	<style>
		tspan { white-space:pre }
		.shp0 { fill: #858585 } 
	</style>
	<path id="Fill 171" fill-rule="evenodd" class="shp0" d="M9.24 16L7.26 16C6.71 16 6.27 15.55 6.27 15L6.27 14.15C5.61 13.92 4.98 13.55 4.4 13.05L3.23 13.73C3.08 13.82 2.91 13.87 2.73 13.87C2.38 13.87 2.05 13.67 1.87 13.37L0.88 11.63C0.61 11.16 0.77 10.54 1.25 10.27L2.41 9.59C2.33 9.2 2.3 8.84 2.3 8.5C2.3 8.16 2.33 7.8 2.41 7.41L1.25 6.73C0.77 6.46 0.61 5.84 0.88 5.37L1.87 3.63C2.05 3.33 2.38 3.13 2.73 3.13C2.91 3.13 3.08 3.18 3.23 3.27L4.4 3.95C4.98 3.45 5.61 3.08 6.27 2.85L6.27 2C6.27 1.45 6.71 1 7.26 1L9.24 1C9.79 1 10.23 1.45 10.23 2L10.23 2.85C10.89 3.08 11.52 3.45 12.1 3.95L13.27 3.27C13.42 3.18 13.59 3.13 13.77 3.13C14.12 3.13 14.45 3.33 14.63 3.63L15.62 5.37C15.89 5.84 15.73 6.46 15.25 6.73L14.09 7.41C14.16 7.8 14.2 8.16 14.2 8.5C14.2 8.84 14.16 9.2 14.09 9.59L15.25 10.27C15.73 10.54 15.89 11.16 15.62 11.63L14.63 13.37C14.45 13.67 14.12 13.87 13.77 13.87C13.59 13.87 13.42 13.82 13.27 13.73L12.1 13.05C11.52 13.55 10.89 13.92 10.23 14.15L10.23 15C10.23 15.55 9.79 16 9.24 16ZM8.25 6C6.88 6 5.77 7.12 5.77 8.5C5.77 9.88 6.88 11 8.25 11C9.62 11 10.73 9.88 10.73 8.5C10.73 7.12 9.62 6 8.25 6ZM8.25 10C7.43 10 6.76 9.33 6.76 8.5C6.76 7.67 7.43 7 8.25 7C9.07 7 9.74 7.67 9.74 8.5C9.74 9.33 9.07 10 8.25 10Z" />
</svg>