<svg xmlns="http://www.w3.org/2000/svg" viewBox="0 0 18 18" width="18" height="18">
	<style>
		tspan { white-space:pre }
		.shp0 { fill: #858585 } 
	</style>
	<path id="Fill 203" class="shp0" d="M8 17C6.06 17 4.24 16.25 2.87 14.88C1.5 13.51 0.75 11.69 0.75 9.75C0.75 7.97 1.44 6.23 2.69 4.86C3.92 3.52 5.54 2.68 7.25 2.5L7.25 10.5L14.61 12.71C14.05 13.97 13.14 15.04 11.99 15.8C10.8 16.59 9.43 17 8 17ZM16.22 12.04L16.22 12.04L8.25 9.65L8.25 1C10.32 1 12.44 1.88 14.09 3.43C14.91 4.2 15.56 5.08 16.02 6.06C16.5 7.09 16.75 8.18 16.75 9.29C16.75 10.25 16.57 11.17 16.22 12.04L16.22 12.04Z" />
</svg>