<svg xmlns="http://www.w3.org/2000/svg" viewBox="0 0 18 19" width="18" height="19">
	<style>
		tspan { white-space:pre }
		.shp0 { fill: #858585 } 
	</style>
	<path id="Profile" class="shp0" d="M16.18 13.16C15.7 12.68 14.89 12.26 13.62 11.62C12.98 11.3 11.91 10.77 11.65 10.52C12.73 9.19 13.36 7.69 13.36 6.37C13.36 5.48 13.36 4.36 12.86 3.37C12.41 2.48 11.41 1.42 9.17 1.42C6.93 1.42 5.92 2.48 5.47 3.37C4.97 4.36 4.97 5.48 4.97 6.37C4.97 7.69 5.6 9.19 6.68 10.52C6.42 10.77 5.36 11.3 4.71 11.62C3.44 12.25 2.64 12.68 2.15 13.16C1.09 14.23 1.01 16.02 1 16.37C0.99 16.73 1.14 17.08 1.39 17.34C1.65 17.6 2 17.75 2.36 17.75L15.97 17.75C16.34 17.75 16.69 17.6 16.94 17.34C17.2 17.08 17.34 16.73 17.33 16.37C17.33 16.02 17.25 14.23 16.18 13.16Z" />
</svg>