<svg xmlns="http://www.w3.org/2000/svg" viewBox="0 0 19 18" width="19" height="18">
	<style>
		tspan { white-space:pre }
		.shp0 { fill: #858585 } 
	</style>
	<path id="Fill 204" fill-rule="evenodd" class="shp0" d="M5.25 17L5.25 17L7.25 13.5L4.25 13.5C3.07 13.5 2.25 12.68 2.25 11.5L2.25 2L1.25 2L1.25 1L17.25 1L17.25 2L16.25 2L16.25 11.5C16.25 12.68 15.43 13.5 14.25 13.5L11.25 13.5L13.25 17L11.74 16.99L9.75 13.5L8.75 13.5L6.76 16.99L5.25 17L5.25 17ZM12.25 5.5C11.97 5.5 11.75 5.72 11.75 6L11.75 10.5C11.75 10.78 11.97 11 12.25 11C12.53 11 12.75 10.78 12.75 10.5L12.75 6C12.75 5.72 12.53 5.5 12.25 5.5ZM9.25 4C8.97 4 8.75 4.22 8.75 4.5L8.75 10.5C8.75 10.78 8.97 11 9.25 11C9.53 11 9.75 10.78 9.75 10.5L9.75 4.5C9.75 4.22 9.53 4 9.25 4ZM6.25 8C5.97 8 5.75 8.22 5.75 8.5L5.75 10.5C5.75 10.78 5.97 11 6.25 11C6.53 11 6.75 10.78 6.75 10.5L6.75 8.5C6.75 8.22 6.53 8 6.25 8Z" />
</svg>