<svg xmlns="http://www.w3.org/2000/svg" viewBox="0 0 19 18" width="19" height="18">
	<style>
		tspan { white-space:pre }
		.shp0 { fill: #858585 } 
	</style>
	<path id="Fill 219" fill-rule="evenodd" class="shp0" d="M11.75 17L4.25 17C3.2 17 2.25 16.05 2.25 15L2.25 5C2.25 4.5 2.46 4 2.81 3.62C3.19 3.23 3.67 3.01 4.17 3.01L4.75 3C4.75 1.95 5.7 1 6.75 1C6.81 1 12.69 1.02 12.75 1.02L16.25 5.01L16.25 13C16.25 14.05 15.3 15 14.25 15L13.75 15C13.75 16.05 12.8 17 11.75 17ZM4.75 4C3.74 4 3.25 4.33 3.25 5L3.25 15C3.25 15.51 3.74 16 4.25 16L11.75 16C12.36 16 12.75 15.61 12.75 14.99L12.65 14.99C11.7 14.99 6.8 15 6.75 15C5.7 15 4.75 14.05 4.75 13L4.75 4ZM8.25 10.51C7.97 10.51 7.75 10.73 7.75 11.01C7.75 11.28 7.97 11.51 8.25 11.51L12.75 11.51C13.03 11.51 13.25 11.28 13.25 11.01C13.25 10.73 13.03 10.51 12.75 10.51L8.25 10.51ZM8.25 8.01C7.97 8.01 7.75 8.23 7.75 8.51C7.75 8.78 7.97 9.01 8.25 9.01L12.75 9.01C13.03 9.01 13.25 8.78 13.25 8.51C13.25 8.23 13.03 8.01 12.75 8.01L8.25 8.01ZM12.75 2.01L12.75 4C12.75 4.52 13.23 5 13.75 5L15.25 5L12.75 2.01Z" />
</svg>