<svg xmlns="http://www.w3.org/2000/svg" viewBox="0 0 18 16" width="18" height="16">
	<style>
		tspan { white-space:pre }
		.shp0 { fill: #858585 } 
	</style>
	<path id="Fill 86" fill-rule="evenodd" class="shp0" d="M0.75 10L0.75 10L2.25 8L0.75 6L2.25 4L0.75 1.93L0.75 1L14.75 1C15.85 1 16.75 1.9 16.75 3L16.75 13C16.75 14.1 15.85 15 14.75 15L0.75 15L0.75 14.07L2.25 12L0.75 10L0.75 10ZM7.75 4.5C7.75 4.22 7.53 4 7.25 4C6.97 4 6.75 4.22 6.75 4.5L6.75 11.5C6.75 11.78 6.97 12 7.25 12C7.53 12 7.75 11.78 7.75 11.5L7.75 4.5ZM10.76 4.5C10.76 4.22 10.54 4 10.26 4C9.99 4 9.76 4.22 9.76 4.5L9.76 11.5C9.76 11.78 9.99 12 10.26 12C10.54 12 10.76 11.78 10.76 11.5L10.76 4.5ZM13.75 4.5C13.75 4.22 13.53 4 13.25 4C12.97 4 12.75 4.22 12.75 4.5L12.75 11.5C12.75 11.78 12.97 12 13.25 12C13.53 12 13.75 11.78 13.75 11.5L13.75 4.5Z" />
</svg>