<svg xmlns="http://www.w3.org/2000/svg" viewBox="0 0 19 18" width="19" height="18">
	<style>
		tspan { white-space:pre }
		.shp0 { fill: #ffffff } 
	</style>
	<path id="Fill 150" class="shp0" d="M14.25 1.5C14.01 1.5 14.03 1.5 13.75 1.5C13.47 1.5 13.25 1.72 13.25 2L13.25 16.5C13.25 17.05 13.7 17.5 14.25 17.5C14.8 17.5 15.25 17.05 15.25 16.5L15.25 10.5C15.71 10.5 16.35 10.5 17.25 10.5C17.25 4.61 14.25 1.5 14.25 1.5Z" />
	<path id="Fill 151" class="shp0" d="M6.25 1.5C5.97 1.5 5.75 1.72 5.75 2L5.75 5.38C5.75 6.09 5.33 6.68 4.75 6.9L4.75 2C4.75 1.72 4.53 1.5 4.25 1.5C3.97 1.5 3.75 1.72 3.75 2L3.75 6.9C3.17 6.68 2.75 6.09 2.75 5.38L2.75 2C2.75 1.72 2.53 1.5 2.25 1.5C1.97 1.5 1.75 1.72 1.75 2L1.75 5.5C1.75 6.52 2.37 7.4 3.25 7.78L3.25 16.5C3.25 17.02 3.64 17.44 4.15 17.49L4.25 17.5L4.35 17.49C4.85 17.44 5.25 17.02 5.25 16.5L5.25 7.78C6.13 7.4 6.75 6.52 6.75 5.5L6.75 2C6.75 1.72 6.53 1.5 6.25 1.5Z" />
</svg>