<svg xmlns="http://www.w3.org/2000/svg" viewBox="0 0 18 19" width="18" height="19">
	<style>
		tspan { white-space:pre }
		.shp0 { fill: #858585 } 
	</style>
	<path id="Fill 213" fill-rule="evenodd" class="shp0" d="M13.85 17L2.65 17C1.88 17 1.25 16.37 1.25 15.6L1.25 4.4C1.25 3.63 1.88 3 2.65 3L12.07 3L6.06 9.02C5.93 9.15 5.85 9.32 5.8 9.53L3.65 13.89C3.58 14.09 3.6 14.29 3.71 14.45C3.8 14.58 3.94 14.65 4.1 14.65C4.18 14.65 4.27 14.63 4.36 14.59L8.71 12.44C8.92 12.39 9.09 12.31 9.22 12.18L15.25 6.15L15.25 15.6C15.25 16.37 14.62 17 13.85 17ZM4.83 13.67C4.74 13.67 4.66 13.62 4.61 13.55C4.57 13.47 4.56 13.37 4.61 13.29L6.23 10.6L7.64 12.01L4.96 13.64C4.91 13.66 4.87 13.67 4.83 13.67ZM8.52 11.48L8.52 11.48C8.11 11.07 7.61 10.57 7.24 10.2L7.22 10.18C7 9.96 6.83 9.79 6.76 9.72L12.37 4.11L14.14 5.86L8.52 11.48L8.52 11.48ZM15.25 6.15L15.25 4.74L14.84 5.15L13.11 3.37L13.48 3L12.07 3L13.79 1.29C13.97 1.1 14.22 1 14.49 1C14.75 1 15 1.1 15.19 1.29L16.95 3.04C17.14 3.23 17.24 3.48 17.24 3.75C17.24 4.01 17.14 4.26 16.95 4.45L15.25 6.15L15.25 6.15ZM13.48 3L13.85 3C14.62 3 15.25 3.63 15.25 4.4L15.25 4.74L15.89 4.1C16.09 3.91 16.09 3.59 15.89 3.4L14.84 2.34C14.75 2.25 14.62 2.2 14.49 2.2C14.36 2.2 14.23 2.25 14.14 2.34L13.48 3Z" />
</svg>