<svg xmlns="http://www.w3.org/2000/svg" viewBox="0 0 19 18" width="19" height="18">
	<style>
		tspan { white-space:pre }
		.shp0 { fill: #858585 } 
		.txt1 { font-size: 15px;fill: #858585;font-family: "Tajawal";font-weight: 700 } 
	</style>
	<path id="Rectangle 3" class="shp0" d="M5.19 16.62C4.58 16.62 3.3 16.62 1.59 16.62C1.59 14.76 1.59 14.79 1.59 14.83C1.59 14.86 1.59 14.89 1.59 14.03C2.34 12.76 3.71 11.99 5.19 12.01C6.67 11.99 8.04 12.76 8.79 14.03C8.79 15.92 8.79 14.41 8.79 16.62C8.2 16.59 6.05 16.62 5.19 16.62ZM3.32 9.28C3.32 8.25 4.16 7.41 5.19 7.41C6.22 7.41 7.06 8.25 7.06 9.28C7.06 10.31 6.22 11.15 5.19 11.15C4.16 11.15 3.32 10.31 3.32 9.28Z" />
	<text id="+" style="transform: matrix(0.5,0,0,0.5,3.5,5.25)" >
		<tspan x="0" y="0" class="txt1">+</tspan>
	</text>
	<path id="Rectangle 3" class="shp0" d="M14.4 16.62C13.79 16.62 12.51 16.62 10.79 16.62C10.79 14.76 10.79 14.79 10.79 14.83C10.79 14.86 10.79 14.89 10.79 14.03C11.55 12.76 12.92 11.99 14.4 12.01C15.87 11.99 17.25 12.76 18 14.03C18 15.92 18 14.41 18 16.62C17.4 16.59 15.26 16.62 14.4 16.62ZM12.53 9.28C12.53 8.25 13.36 7.41 14.4 7.41C15.43 7.41 16.27 8.25 16.27 9.28C16.27 10.31 15.43 11.15 14.4 11.15C13.36 11.15 12.53 10.31 12.53 9.28Z" />
	<text id="+" style="transform: matrix(0.5,0,0,0.5,12.5,5.25)" >
		<tspan x="0" y="0" class="txt1">+</tspan>
	</text>
</svg>